<?xml version="1.0" standalone="no"?>
<!DOCTYPE svg PUBLIC "-//W3C//DTD SVG 20010904//EN"
 "http://www.w3.org/TR/2001/REC-SVG-20010904/DTD/svg10.dtd">
<svg version="1.0" xmlns="http://www.w3.org/2000/svg"
 width="1000.000000pt" height="1040.000000pt" viewBox="0 0 1000.000000 1040.000000"
 preserveAspectRatio="xMidYMid meet">

<g transform="translate(0.000000,1040.000000) scale(0.100000,-0.100000)"
fill="#000000" stroke="none">
<path d="M6134 8406 c-91 -40 -150 -139 -141 -238 17 -184 221 -279 374 -174
147 101 131 321 -28 401 -55 29 -153 34 -205 11z"/>
<path d="M2596 8363 c-3 -4 -6 -39 -6 -80 0 -57 3 -73 15 -73 10 0 15 15 17
58 l3 57 23 -39 23 -39 27 39 27 39 3 -57 c2 -32 7 -58 12 -58 13 0 13 147 1
155 -5 3 -22 -10 -37 -30 -14 -19 -29 -35 -33 -35 -3 0 -15 13 -26 30 -21 31
-39 43 -49 33z"/>
<path d="M3147 8363 c-11 -10 -8 -153 3 -153 5 0 10 26 12 58 l3 57 26 -38 27
-38 23 38 24 38 3 -57 c2 -37 7 -58 15 -58 9 0 11 22 9 79 -4 89 -15 96 -53
35 l-21 -34 -29 40 c-31 43 -32 44 -42 33z"/>
<path d="M3580 8341 c0 -10 -6 -21 -12 -24 -10 -4 -10 -7 0 -18 6 -7 12 -30
12 -50 0 -36 19 -57 41 -43 14 8 11 24 -6 24 -10 0 -15 11 -15 35 0 24 5 35
15 35 8 0 15 5 15 10 0 6 -7 10 -15 10 -8 0 -15 6 -15 14 0 8 -4 18 -10 21 -5
3 -10 -3 -10 -14z"/>
<path d="M2797 8313 c-15 -15 -5 -22 23 -16 23 4 30 2 30 -10 0 -10 -11 -17
-32 -19 -25 -2 -34 -8 -36 -25 -4 -28 23 -42 66 -36 29 5 32 9 32 40 0 49 -16
73 -49 73 -15 0 -31 -3 -34 -7z m53 -68 c0 -21 -28 -31 -43 -16 -9 9 -8 14 3
21 22 14 40 12 40 -5z"/>
<path d="M2918 8292 c20 -27 20 -28 0 -55 -22 -30 -5 -39 18 -9 13 16 15 16
25 0 5 -10 17 -18 25 -18 13 0 12 5 -4 27 -20 27 -20 28 0 55 16 23 17 28 4
28 -8 0 -20 -8 -25 -17 -10 -17 -12 -17 -25 0 -23 29 -39 20 -18 -11z"/>
<path d="M3330 8270 c0 -39 4 -52 20 -60 12 -7 27 -7 38 -2 9 5 23 7 30 5 9
-3 12 11 12 51 0 31 -4 56 -10 56 -5 0 -10 -15 -10 -32 0 -42 -12 -61 -36 -56
-14 2 -20 13 -22 46 -4 59 -22 53 -22 -8z"/>
<path d="M3467 8314 c-17 -18 -6 -46 23 -57 17 -6 30 -15 30 -19 0 -14 -22
-20 -33 -9 -14 14 -27 14 -27 1 0 -18 39 -31 60 -20 31 16 25 49 -10 61 -35
13 -29 33 7 24 18 -4 24 -2 21 7 -5 14 -59 23 -71 12z"/>
<path d="M3667 8302 c-34 -37 -11 -94 37 -94 29 0 55 17 43 28 -4 4 -13 2 -20
-5 -17 -14 -47 -4 -47 15 0 10 12 14 40 14 44 0 52 16 22 43 -24 22 -55 21
-75 -1z m63 -14 c0 -7 -11 -14 -25 -14 -24 -2 -32 6 -18 19 11 12 43 8 43 -5z"/>
<path d="M3780 8263 c0 -40 4 -53 15 -53 11 0 15 11 15 39 0 31 4 41 20 46 31
10 23 21 -15 21 l-35 0 0 -53z"/>
<path d="M3870 8263 c0 -63 18 -72 22 -10 2 34 7 42 23 42 16 0 21 -8 23 -42
4 -50 22 -58 22 -10 0 41 13 62 34 54 11 -4 16 -19 16 -47 0 -29 4 -40 15 -40
18 0 21 60 5 91 -12 21 -50 25 -68 7 -9 -9 -12 -9 -12 0 0 7 -15 11 -40 10
l-40 -1 0 -54z"/>
<path d="M4077 8313 c-14 -13 -6 -22 19 -20 40 3 42 -21 2 -25 -25 -2 -34 -8
-36 -25 -4 -28 23 -42 66 -36 27 5 32 9 32 33 0 52 -17 80 -48 80 -16 0 -32
-3 -35 -7z m53 -68 c0 -21 -28 -31 -43 -16 -9 9 -8 14 3 21 22 14 40 12 40 -5z"/>
<path d="M4190 8263 c0 -63 18 -71 22 -10 2 34 7 42 23 42 16 0 21 -8 23 -42
4 -55 32 -61 32 -7 0 57 -15 75 -60 72 l-40 -3 0 -52z"/>
<path d="M4320 8316 c-1 -1 -2 -25 -4 -53 -2 -39 0 -53 10 -53 8 0 14 16 16
43 2 34 7 42 23 42 16 0 21 -8 23 -42 4 -55 32 -61 32 -7 0 57 -14 74 -60 72
-22 -1 -40 -2 -40 -2z"/>
<path d="M6118 7886 c-134 -39 -245 -158 -278 -298 -19 -86 -60 -78 390 -78
246 0 400 4 400 10 0 5 -5 33 -11 62 -26 125 -125 246 -237 289 -71 27 -197
34 -264 15z"/>
<path d="M2593 7003 c-18 -7 -16 -50 3 -57 9 -3 141 -6 294 -6 240 0 281 2
294 16 9 8 16 17 16 19 0 2 -7 11 -16 19 -13 14 -54 16 -297 15 -155 0 -288
-3 -294 -6z"/>
<path d="M2587 5513 c-16 -16 -6 -53 16 -58 12 -3 222 -4 466 -3 401 3 445 5
454 20 8 12 7 21 -2 32 -12 14 -66 16 -471 16 -251 0 -460 -3 -463 -7z"/>
<path d="M4923 5504 c-3 -9 -2 -24 4 -33 9 -14 59 -16 463 -19 326 -1 457 1
466 9 19 15 18 45 -2 53 -9 3 -220 6 -470 6 -412 0 -455 -2 -461 -16z"/>
<path d="M2872 4003 l-293 -3 3 -28 3 -27 297 -3 c286 -2 298 -2 308 17 7 15
6 23 -6 35 -8 9 -16 15 -17 14 -1 -2 -134 -4 -295 -5z"/>
<path d="M7240 2380 c0 -6 124 -10 351 -10 231 0 348 3 344 10 -4 6 -132 10
-351 10 -223 0 -344 -4 -344 -10z"/>
</g>
</svg>
