<svg width="96" height="74" viewBox="0 0 96 74" fill="none" xmlns="http://www.w3.org/2000/svg">
<g clip-path="url(#clip0_4123_202)">
<path d="M93.0244 31.723C92.7616 31.5033 90.3964 29.7015 85.3152 29.7015C84.0012 29.7015 82.6432 29.8334 81.3292 30.0531C80.3656 23.3292 74.8028 20.0772 74.5836 19.9014L73.2256 19.1104L72.3496 20.3848C71.2548 22.0987 70.4224 24.0324 69.9404 26.01C69.0208 29.8333 69.59 33.437 71.5176 36.5132C69.196 37.8316 65.4288 38.1393 64.6404 38.1832H2.4405C0.8198 38.1832 -0.494283 39.5016 -0.494283 41.1278C-0.581889 46.577 0.337968 52.0266 2.22149 57.1682C4.36784 62.7934 7.56544 66.9682 11.6829 69.5174C16.326 72.3738 23.9038 73.9998 32.4454 73.9998C36.3 73.9998 40.1548 73.6482 43.9656 72.945C49.2656 71.9782 54.3468 70.1326 59.0336 67.4518C62.8884 65.2106 66.3488 62.3538 69.2836 59.0138C74.2332 53.4326 77.168 47.1922 79.3144 41.655H80.1904C85.578 41.655 88.9072 39.5016 90.7468 37.6558C91.9732 36.5132 92.8932 35.107 93.5504 33.5249L93.9444 32.3822L93.0244 31.723Z" fill="#0091E2"/>
<path d="M8.26022 36.4164H16.5825C16.9767 36.4164 17.3271 36.1083 17.3271 35.6681V28.1851C17.3271 27.7889 17.0205 27.4368 16.5825 27.4368H8.26022C7.86602 27.4368 7.51562 27.7449 7.51562 28.1851V35.6681C7.55942 36.1083 7.86602 36.4164 8.26022 36.4164ZM19.7362 36.4164H28.0585C28.4527 36.4164 28.8031 36.1083 28.8031 35.6681V28.1851C28.8031 27.7889 28.4965 27.4368 28.0585 27.4368H19.7362C19.342 27.4368 18.9916 27.7449 18.9916 28.1851V35.6681C19.0354 36.1083 19.342 36.4164 19.7362 36.4164ZM31.4312 36.4164H39.7535C40.1475 36.4164 40.4979 36.1083 40.4979 35.6682V28.1851C40.4979 27.7889 40.1915 27.4368 39.7535 27.4368H31.4312C31.037 27.4368 30.6866 27.7449 30.6866 28.1851V35.6681C30.6866 36.1083 30.9932 36.4164 31.4312 36.4164ZM42.9511 36.4164H51.2731C51.6675 36.4164 52.0179 36.1083 52.0179 35.6682V28.1851C52.0179 27.7889 51.7111 27.4368 51.2731 27.4368L42.9511 27.4368C42.5567 27.4368 42.2063 27.7449 42.2063 28.1851V35.6682C42.2063 36.1083 42.5567 36.4164 42.9511 36.4164ZM19.7362 25.7201H28.0585C28.4527 25.7201 28.8031 25.3679 28.8031 24.9718V17.4887C28.8031 17.0926 28.4965 16.7404 28.0585 16.7404H19.7362C19.342 16.7404 18.9916 17.0485 18.9916 17.4887V24.9718C19.0354 25.3679 19.342 25.7201 19.7362 25.7201ZM31.4312 25.7201H39.7535C40.1475 25.7201 40.4979 25.3679 40.4979 24.9718V17.4887C40.4979 17.0926 40.1915 16.7404 39.7535 16.7404H31.4312C31.037 16.7404 30.6866 17.0485 30.6866 17.4887V24.9718C30.6866 25.3679 30.9932 25.7201 31.4312 25.7201ZM42.9511 25.7201H51.2731C51.6675 25.7201 52.0179 25.3679 52.0179 24.9718V17.4887C52.0179 17.0926 51.6675 16.7404 51.2731 16.7404H42.9511C42.5567 16.7404 42.2063 17.0485 42.2063 17.4887V24.9718C42.2063 25.3679 42.5567 25.7201 42.9511 25.7201ZM42.9511 14.9797H51.2731C51.6675 14.9797 52.0179 14.6716 52.0179 14.2314V6.74832C52.0179 6.35216 51.6675 6 51.2731 6H42.9511C42.5567 6 42.2063 6.30812 42.2063 6.74832V14.2314C42.2063 14.6275 42.5567 14.9797 42.9511 14.9797ZM54.5583 36.4164H62.8807C63.2747 36.4164 63.6251 36.1083 63.6251 35.6682V28.1851C63.6251 27.7889 63.3187 27.4368 62.8807 27.4368H54.5583C54.1639 27.4368 53.8135 27.7449 53.8135 28.1851V35.6682C53.8575 36.1083 54.1639 36.4164 54.5583 36.4164Z" fill="#0091E2"/>
</g>
<defs>
<clipPath id="clip0_4123_202">
<rect width="96" height="74" fill="white"/>
</clipPath>
</defs>
</svg>
