<svg width="80" height="80" viewBox="0 0 80 80" fill="none" xmlns="http://www.w3.org/2000/svg">
<path fill-rule="evenodd" clip-rule="evenodd" d="M39.3848 16.7812H73.8463V33.1892H39.3848V16.7812Z" fill="white"/>
<path fill-rule="evenodd" clip-rule="evenodd" d="M8.20514 70.3483C5.17006 70.3483 2.52595 68.4049 1.10646 65.5225C0.381739 66.9879 -3.16156e-05 68.653 1.96373e-09 70.3483C1.96373e-09 75.679 3.67344 80 8.20514 80H16.4103V70.3483H8.20514Z" fill="#3ECC5F"/>
<path fill-rule="evenodd" clip-rule="evenodd" d="M45.1201 19.3757L73.8463 17.2639V12.438C73.8463 7.1074 70.1728 2.78633 65.6411 2.78633H28.718L27.6924 0.696733C27.2361 -0.232244 26.0969 -0.232244 25.6411 0.696733L24.6154 2.78633L23.5898 0.696733C23.134 -0.232244 21.9943 -0.232244 21.5385 0.696733L20.5129 2.78633L19.4872 0.696733C19.0314 -0.232244 17.8917 -0.232244 17.4359 0.696733L16.4103 2.78633C16.4013 2.78633 16.3931 2.78778 16.3836 2.78778L14.6843 0.789389C14.0402 0.0312471 12.9399 0.377744 12.7036 1.41385L12.142 3.87697L10.0119 3.20521C9.13069 2.92773 8.32535 3.87552 8.56166 4.91163L9.13192 7.4177L7.03879 8.0774C6.15755 8.35536 5.86258 9.65014 6.50709 10.4083L8.20638 12.4072C8.20638 12.4173 8.20515 12.4274 8.20515 12.438L6.42873 13.6445C5.63899 14.1807 5.63899 15.5213 6.42873 16.0574L8.20515 17.2639L6.42873 18.4704C5.63899 19.0065 5.63899 20.3471 6.42873 20.8833L8.20515 22.0897L6.42873 23.2962C5.63899 23.8324 5.63899 25.173 6.42873 25.7091L8.20515 26.9156L6.42873 28.1221C5.63899 28.6582 5.63899 29.9988 6.42873 30.535L8.20515 31.7415L6.42873 32.9479C5.63899 33.4841 5.63899 34.8247 6.42873 35.3608L8.20515 36.5673L6.42873 37.7738C5.63899 38.3099 5.63899 39.6505 6.42873 40.1867L8.20515 41.3932L6.42873 42.5996C5.63899 43.1358 5.63899 44.4764 6.42873 45.0126L8.20515 46.219L6.42873 47.4255C5.63899 47.9616 5.63899 49.3023 6.42873 49.8384L8.20515 51.0449L6.42873 52.2513C5.63899 52.7875 5.63899 54.1281 6.42873 54.6643L8.20515 55.8707L6.42873 57.0772C5.63899 57.6133 5.63899 58.954 6.42873 59.4901L8.20515 60.6966L6.42873 61.903C5.63899 62.4392 5.63899 63.7798 6.42873 64.316L8.20515 65.5224L6.42873 66.7289C5.63899 67.2651 5.63899 68.6057 6.42873 69.1418L8.20515 70.3483C8.20515 75.6789 11.8786 80 16.4103 80H65.6411C70.1728 80 73.8463 75.6789 73.8463 70.3483V31.7415L45.1201 29.6297C44.0112 29.548 42.9705 28.9723 42.2099 28.0198C41.4492 27.0673 41.0257 25.8096 41.0257 24.5027C41.0257 21.7901 42.8185 19.5451 45.1201 19.3757Z" fill="#3ECC5F"/>
<path fill-rule="evenodd" clip-rule="evenodd" d="M57.436 79.9997H69.7437V60.6963H57.436V79.9997Z" fill="#3ECC5F"/>
<path fill-rule="evenodd" clip-rule="evenodd" d="M77.9489 67.9354C77.859 67.9354 77.7733 67.9533 77.6867 67.9663C77.6711 67.8939 77.6563 67.821 77.6391 67.7486C78.0763 67.5336 78.4367 67.1472 78.6591 66.655C78.8815 66.1628 78.9522 65.5952 78.8592 65.0487C78.7661 64.5021 78.5151 64.0103 78.1487 63.6569C77.7823 63.3034 77.3232 63.11 76.8494 63.1095C76.4014 63.1114 75.9664 63.2872 75.612 63.6095C75.5666 63.555 75.5208 63.5009 75.4746 63.4474C75.7426 63.0328 75.8882 62.5267 75.8894 62.0059C75.8891 61.4499 75.7256 60.9112 75.4266 60.4806C75.1276 60.0501 74.7113 59.7543 74.2483 59.6431C73.7852 59.5319 73.3037 59.6123 72.8852 59.8705C72.4666 60.1288 72.1368 60.5491 71.9513 61.0605C71.8906 61.0402 71.8295 61.0233 71.7687 61.005C71.7798 60.9032 71.795 60.8023 71.795 60.6966C71.795 60.0567 71.5789 59.4429 71.1942 58.9904C70.8095 58.5379 70.2877 58.2837 69.7437 58.2837C69.1997 58.2837 68.6779 58.5379 68.2932 58.9904C67.9085 59.4429 67.6924 60.0567 67.6924 60.6966C67.6924 60.8023 67.7076 60.9032 67.7187 61.005C67.658 61.0233 67.5968 61.0402 67.5361 61.0605C67.3513 60.5482 67.0216 60.1268 66.6029 59.8677C66.1841 59.6087 65.7021 59.528 65.2385 59.6393C64.7749 59.7506 64.3584 60.047 64.0594 60.4783C63.7604 60.9097 63.5974 61.4493 63.5981 62.0059C63.5981 62.5488 63.7556 63.0439 64.0128 63.4474C62.4879 65.2001 61.5386 67.6425 61.5386 70.3483C61.5386 75.679 65.212 80 69.7437 80C73.5751 80 76.7837 76.9067 77.6867 72.7304C77.7733 72.7434 77.859 72.7613 77.9489 72.7613C78.4929 72.7613 79.0146 72.507 79.3993 72.0545C79.784 71.602 80.0001 70.9883 80.0001 70.3483C80.0001 69.7084 79.784 69.0946 79.3993 68.6421C79.0146 68.1896 78.4929 67.9354 77.9489 67.9354Z" fill="#44D860"/>
<path fill-rule="evenodd" clip-rule="evenodd" d="M61.5386 51.0448H73.8463V41.3931H61.5386V51.0448Z" fill="#3ECC5F"/>
<path fill-rule="evenodd" clip-rule="evenodd" d="M77.9488 47.4253C78.2208 47.4253 78.4817 47.2982 78.674 47.072C78.8664 46.8457 78.9744 46.5388 78.9744 46.2189C78.9744 45.8989 78.8664 45.592 78.674 45.3658C78.4817 45.1395 78.2208 45.0124 77.9488 45.0124C77.9041 45.0124 77.861 45.0216 77.8179 45.0278C77.8097 44.9916 77.8027 44.9554 77.7941 44.9193C78.0124 44.8114 78.1923 44.6181 78.3033 44.3721C78.4143 44.126 78.4495 43.8424 78.403 43.5693C78.3565 43.2962 78.2311 43.0505 78.0481 42.8737C77.8651 42.6969 77.6358 42.6 77.399 42.5995C77.1656 42.5995 76.9527 42.6945 76.7804 42.8494C76.7578 42.8219 76.7348 42.7949 76.7115 42.7684C76.8403 42.5671 76.919 42.3191 76.919 42.0474C76.919 41.7693 76.8373 41.4999 76.6877 41.2845C76.5382 41.0692 76.33 40.9212 76.0984 40.8656C75.8668 40.8101 75.6259 40.8503 75.4167 40.9796C75.2074 41.1088 75.0425 41.3191 74.9498 41.5749C74.5907 41.4555 74.2194 41.3942 73.8462 41.393C71.5808 41.393 69.7437 43.554 69.7437 46.2189C69.7437 48.8837 71.5808 51.0447 73.8462 51.0447C74.2294 51.0447 74.5982 50.9781 74.9498 50.8628C75.0425 51.1186 75.2074 51.3289 75.4167 51.4581C75.6259 51.5874 75.8668 51.6276 76.0984 51.5721C76.33 51.5165 76.5382 51.3685 76.6877 51.1532C76.8373 50.9379 76.919 50.6684 76.919 50.3903C76.919 50.1186 76.8403 49.8706 76.7115 49.6693C76.7348 49.6428 76.7578 49.6158 76.7804 49.5883C76.9527 49.7432 77.1656 49.8383 77.399 49.8383C77.6361 49.8382 77.8658 49.7416 78.0491 49.5649C78.2324 49.3881 78.3581 49.1422 78.4046 48.8688C78.4512 48.5954 78.4158 48.3115 78.3045 48.0653C78.1932 47.8191 78.0129 47.6259 77.7941 47.5185C77.8027 47.4828 77.8097 47.4461 77.8179 47.4099C77.861 47.4162 77.9041 47.4253 77.9488 47.4253Z" fill="#44D860"/>
<path fill-rule="evenodd" clip-rule="evenodd" d="M24.6155 18.4702C24.3435 18.4702 24.0827 18.3431 23.8903 18.1169C23.698 17.8906 23.5899 17.5837 23.5899 17.2638C23.5899 15.2678 22.2098 13.6444 20.513 13.6444C18.8162 13.6444 17.4361 15.2678 17.4361 17.2638C17.4361 17.5837 17.328 17.8906 17.1356 18.1169C16.9433 18.3431 16.6824 18.4702 16.4104 18.4702C16.1384 18.4702 15.8775 18.3431 15.6852 18.1169C15.4928 17.8906 15.3848 17.5837 15.3848 17.2638C15.3848 13.9373 17.6851 11.2314 20.513 11.2314C23.3409 11.2314 25.6412 13.9373 25.6412 17.2638C25.6412 17.5837 25.5331 17.8906 25.3408 18.1169C25.1484 18.3431 24.8876 18.4702 24.6155 18.4702Z" fill="black"/>
<path fill-rule="evenodd" clip-rule="evenodd" d="M41.0254 80.0001H65.6408C70.1725 80.0001 73.8459 75.679 73.8459 70.3484V36.5674H49.2305C44.6988 36.5674 41.0254 40.8885 41.0254 46.2191V80.0001Z" fill="#FFFF50"/>
<path fill-rule="evenodd" clip-rule="evenodd" d="M67.7011 51.5275H47.1719C47.0631 51.5275 46.9587 51.4766 46.8818 51.3861C46.8048 51.2956 46.7616 51.1729 46.7616 51.0449C46.7616 50.9169 46.8048 50.7942 46.8818 50.7037C46.9587 50.6132 47.0631 50.5623 47.1719 50.5623H67.7011C67.8099 50.5623 67.9143 50.6132 67.9912 50.7037C68.0682 50.7942 68.1114 50.9169 68.1114 51.0449C68.1114 51.1729 68.0682 51.2956 67.9912 51.3861C67.9143 51.4766 67.8099 51.5275 67.7011 51.5275ZM67.7011 61.1792H47.1719C47.0631 61.1792 46.9587 61.1284 46.8818 61.0378C46.8048 60.9473 46.7616 60.8246 46.7616 60.6966C46.7616 60.5686 46.8048 60.4459 46.8818 60.3554C46.9587 60.2649 47.0631 60.214 47.1719 60.214H67.7011C67.8099 60.214 67.9143 60.2649 67.9912 60.3554C68.0682 60.4459 68.1114 60.5686 68.1114 60.6966C68.1114 60.8246 68.0682 60.9473 67.9912 61.0378C67.9143 61.1284 67.8099 61.1792 67.7011 61.1792ZM67.7011 70.8309H47.1719C47.0631 70.8309 46.9587 70.7801 46.8818 70.6896C46.8048 70.5991 46.7616 70.4763 46.7616 70.3483C46.7616 70.2203 46.8048 70.0976 46.8818 70.0071C46.9587 69.9166 47.0631 69.8657 47.1719 69.8657H67.7011C67.8099 69.8657 67.9143 69.9166 67.9912 70.0071C68.0682 70.0976 68.1114 70.2203 68.1114 70.3483C68.1114 70.4763 68.0682 70.5991 67.9912 70.6896C67.9143 70.7801 67.8099 70.8309 67.7011 70.8309ZM67.7011 46.7914H47.1719C47.0631 46.7914 46.9587 46.7405 46.8818 46.65C46.8048 46.5595 46.7616 46.4368 46.7616 46.3088C46.7616 46.1808 46.8048 46.0581 46.8818 45.9676C46.9587 45.8771 47.0631 45.8262 47.1719 45.8262H67.7011C67.8099 45.8262 67.9143 45.8771 67.9912 45.9676C68.0682 46.0581 68.1114 46.1808 68.1114 46.3088C68.1114 46.4368 68.0682 46.5595 67.9912 46.65C67.9143 46.7405 67.8099 46.7914 67.7011 46.7914ZM67.7011 56.3533H47.1719C47.0631 56.3533 46.9587 56.3025 46.8818 56.212C46.8048 56.1215 46.7616 55.9987 46.7616 55.8708C46.7616 55.7428 46.8048 55.62 46.8818 55.5295C46.9587 55.439 47.0631 55.3882 47.1719 55.3882H67.7011C67.8099 55.3882 67.9143 55.439 67.9912 55.5295C68.0682 55.62 68.1114 55.7428 68.1114 55.8708C68.1114 55.9987 68.0682 56.1215 67.9912 56.212C67.9143 56.3025 67.8099 56.3533 67.7011 56.3533ZM67.7011 66.0051H47.1719C47.0631 66.0051 46.9587 65.9542 46.8818 65.8637C46.8048 65.7732 46.7616 65.6505 46.7616 65.5225C46.7616 65.3945 46.8048 65.2717 46.8818 65.1812C46.9587 65.0907 47.0631 65.0399 47.1719 65.0399H67.7011C67.8099 65.0399 67.9143 65.0907 67.9912 65.1812C68.0682 65.2717 68.1114 65.3945 68.1114 65.5225C68.1114 65.6505 68.0682 65.7732 67.9912 65.8637C67.9143 65.9542 67.8099 66.0051 67.7011 66.0051ZM73.8468 21.4195C73.8418 21.4195 73.8377 21.4166 73.8328 21.417C72.5651 21.4677 71.9653 22.9594 71.4361 24.2754C70.8839 25.6508 70.4568 26.545 69.7569 26.518C68.9819 26.4852 68.5389 25.4553 68.0695 24.3656C67.5305 23.1138 66.9151 21.6941 65.6232 21.7471C64.3735 21.7973 63.7717 23.0955 63.2408 24.2407C62.6759 25.4606 62.2915 26.2024 61.5501 26.1681C60.7596 26.1343 60.3395 25.297 59.8533 24.328C59.3114 23.2489 58.6849 22.0357 57.418 22.0772C56.1897 22.1269 55.5862 23.2282 55.0537 24.2006C54.4904 25.2285 54.0958 25.8549 53.345 25.8177C52.5356 25.784 52.1175 25.089 51.6338 24.2846C51.0906 23.3807 50.4785 22.3576 49.2154 22.4073C48.0141 22.4556 47.4106 23.358 46.8785 24.1533C46.3731 24.9081 45.9784 25.5055 45.1436 25.4679C45.0347 25.4633 44.9288 25.5097 44.8491 25.5969C44.7694 25.6842 44.7224 25.8051 44.7185 25.9331C44.7146 26.0611 44.7541 26.1856 44.8282 26.2794C44.9024 26.3732 45.0052 26.4284 45.114 26.433C46.3518 26.4818 46.9786 25.5644 47.523 24.7503C48.0059 24.0283 48.4227 23.4053 49.2433 23.3725C50.0334 23.3329 50.4039 23.9106 50.9643 24.842C51.4964 25.727 52.1003 26.7308 53.3155 26.7824C54.5885 26.8326 55.201 25.7135 55.7434 24.7232C56.2283 23.8382 56.6467 23.0742 57.4459 23.0419C58.1815 23.0096 58.5819 23.6934 59.1464 24.8183C59.6785 25.8785 60.2812 27.0797 61.5206 27.1328C62.8027 27.1849 63.4217 25.8684 63.9612 24.703C64.4285 23.6953 64.8695 22.7437 65.6511 22.7118C66.3867 22.6916 66.7702 23.4815 67.3376 24.8014C67.8677 26.0335 68.4687 27.4291 69.7274 27.4827L69.7967 27.4841C71.0537 27.4841 71.6503 26.0002 72.1783 24.688C72.6455 23.525 73.0878 22.4295 73.8468 22.3846V21.4195Z" fill="black"/>
<path fill-rule="evenodd" clip-rule="evenodd" d="M32.8203 79.9997H49.2306V60.6963H32.8203V79.9997Z" fill="#3ECC5F"/>
<path d="M73.7471 29.9184L41.838 39.9758C41.4002 40.1137 41.1405 40.643 41.2578 41.1579L44.376 54.8471C44.4933 55.3619 44.9432 55.6675 45.381 55.5295L77.29 45.4721C77.7278 45.3342 77.9875 44.8049 77.8702 44.2901L74.752 30.6009C74.6347 30.086 74.1848 29.7804 73.7471 29.9184Z" fill="#D8D8D8"/>
<path d="M51.4684 47.4696L50.326 47.8297C50.1071 47.8987 49.9772 48.1633 50.0359 48.4207L50.342 49.7646C50.4006 50.0221 50.6256 50.1748 50.8445 50.1059L51.9869 49.7458C52.2058 49.6768 52.3357 49.4122 52.277 49.1547L51.9709 47.8108C51.9123 47.5534 51.6873 47.4006 51.4684 47.4696Z" fill="#4A4A4A"/>
<path d="M53.7614 46.7469L52.6189 47.107C52.4001 47.176 52.2702 47.4406 52.3288 47.6981L52.635 49.042C52.6936 49.2994 52.9186 49.4522 53.1374 49.3832L54.2799 49.0231C54.4987 48.9541 54.6286 48.6895 54.57 48.4321L54.2639 47.0882C54.2052 46.8307 53.9803 46.678 53.7614 46.7469Z" fill="#4A4A4A"/>
<path d="M56.0549 46.0238L54.9124 46.3839C54.6935 46.4529 54.5637 46.7175 54.6223 46.9749L54.9284 48.3188C54.9871 48.5763 55.212 48.729 55.4309 48.6601L56.5733 48.3C56.7922 48.231 56.9221 47.9664 56.8634 47.7089L56.5573 46.365C56.4987 46.1076 56.2737 45.9548 56.0549 46.0238Z" fill="#4A4A4A"/>
<path d="M58.3483 45.3011L57.2058 45.6612C56.987 45.7302 56.8571 45.9948 56.9158 46.2523L57.2219 47.5962C57.2805 47.8536 57.5055 48.0064 57.7243 47.9374L58.8668 47.5773C59.0857 47.5083 59.2155 47.2437 59.1569 46.9863L58.8508 45.6424C58.7921 45.3849 58.5672 45.2322 58.3483 45.3011Z" fill="#4A4A4A"/>
<path d="M60.6413 44.5785L59.4988 44.9386C59.28 45.0076 59.1501 45.2722 59.2087 45.5296L59.5148 46.8735C59.5735 47.1309 59.7984 47.2837 60.0173 47.2147L61.1598 46.8547C61.3786 46.7857 61.5085 46.5211 61.4499 46.2636L61.1437 44.9197C61.0851 44.6623 60.8601 44.5095 60.6413 44.5785Z" fill="#4A4A4A"/>
<path d="M62.9343 43.8553L61.7918 44.2154C61.5729 44.2844 61.443 44.549 61.5017 44.8065L61.8078 46.1504C61.8665 46.4078 62.0914 46.5606 62.3103 46.4916L63.4527 46.1315C63.6716 46.0625 63.8015 45.7979 63.7428 45.5405L63.4367 44.1966C63.3781 43.9391 63.1531 43.7864 62.9343 43.8553Z" fill="#4A4A4A"/>
<path d="M65.2277 43.1327L64.0852 43.4928C63.8664 43.5618 63.7365 43.8264 63.7951 44.0838L64.1013 45.4277C64.1599 45.6851 64.3849 45.8379 64.6037 45.7689L65.7462 45.4089C65.9651 45.3399 66.0949 45.0752 66.0363 44.8178L65.7302 43.4739C65.6715 43.2165 65.4466 43.0637 65.2277 43.1327Z" fill="#4A4A4A"/>
<path d="M67.5212 42.41L66.3787 42.7701C66.1598 42.8391 66.03 43.1037 66.0886 43.3612L66.3947 44.705C66.4534 44.9625 66.6783 45.1153 66.8972 45.0463L68.0397 44.6862C68.2585 44.6172 68.3884 44.3526 68.3298 44.0952L68.0236 42.7513C67.965 42.4938 67.74 42.341 67.5212 42.41Z" fill="#4A4A4A"/>
<path d="M69.8146 41.6869L68.6722 42.047C68.4533 42.116 68.3234 42.3806 68.3821 42.638L68.6882 43.9819C68.7468 44.2393 68.9718 44.3921 69.1906 44.3231L70.3331 43.963C70.552 43.8941 70.6819 43.6294 70.6232 43.372L70.3171 42.0281C70.2584 41.7707 70.0335 41.6179 69.8146 41.6869Z" fill="#4A4A4A"/>
<path fill-rule="evenodd" clip-rule="evenodd" d="M44.2348 49.7501L49.1034 48.2155C49.2085 48.1824 49.3205 48.1997 49.4147 48.2637C49.509 48.3277 49.5777 48.4331 49.6059 48.5568L49.9119 49.9002C49.9401 50.0238 49.9253 50.1555 49.8709 50.2664C49.8165 50.3772 49.7269 50.4581 49.6218 50.4912L44.7531 52.0258C44.648 52.0589 44.5361 52.0416 44.4418 51.9776C44.3476 51.9136 44.2788 51.8082 44.2507 51.6845L43.9446 50.3407C43.9164 50.217 43.9311 50.0853 43.9855 49.9745C44.0399 49.8636 44.1296 49.7827 44.2347 49.7496L44.2348 49.7501ZM71.0366 41.3024L75.9057 39.7678C76.0108 39.7346 76.1228 39.752 76.217 39.816C76.3112 39.88 76.38 39.9854 76.4081 40.109L76.7141 41.4524C76.7423 41.576 76.7276 41.7078 76.6732 41.8186C76.6188 41.9295 76.5292 42.0103 76.4241 42.0435L71.5546 43.5783C71.4495 43.6114 71.3375 43.594 71.2433 43.5301C71.1491 43.4661 71.0803 43.3607 71.0521 43.237L70.746 41.8931C70.7179 41.7695 70.7326 41.6378 70.787 41.5269C70.8414 41.4161 70.931 41.3352 71.0361 41.3021L71.0366 41.3024Z" fill="#4A4A4A"/>
<path fill-rule="evenodd" clip-rule="evenodd" d="M42.9944 44.3028L44.853 43.717C44.9581 43.6839 45.07 43.7013 45.1643 43.7653C45.2585 43.8292 45.3273 43.9347 45.3554 44.0583L45.6614 45.4017C45.6896 45.5253 45.6749 45.6571 45.6205 45.7679C45.5661 45.8787 45.4764 45.9596 45.3713 45.9927L43.5128 46.5785C43.4077 46.6117 43.2957 46.5943 43.2015 46.5303C43.1073 46.4663 43.0385 46.3609 43.0103 46.2373L42.7043 44.8939C42.6762 44.7702 42.6909 44.6385 42.7453 44.5277C42.7997 44.4168 42.8893 44.336 42.9944 44.3028Z" fill="#4A4A4A"/>
<path d="M47.1467 42.994L46.0042 43.3541C45.7853 43.4231 45.6554 43.6877 45.7141 43.9451L46.0202 45.289C46.0789 45.5465 46.3038 45.6993 46.5227 45.6303L47.6651 45.2702C47.884 45.2012 48.0139 44.9366 47.9552 44.6791L47.6491 43.3352C47.5905 43.0778 47.3655 42.925 47.1467 42.994Z" fill="#4A4A4A"/>
<path d="M49.4401 42.2714L48.2976 42.6314C48.0788 42.7004 47.9489 42.965 48.0075 43.2225L48.3137 44.5664C48.3723 44.8238 48.5973 44.9766 48.8161 44.9076L49.9586 44.5475C50.1775 44.4785 50.3073 44.2139 50.2487 43.9565L49.9426 42.6126C49.8839 42.3551 49.659 42.2024 49.4401 42.2714Z" fill="#4A4A4A"/>
<path d="M51.7331 41.5487L50.5906 41.9088C50.3718 41.9778 50.2419 42.2424 50.3005 42.4998L50.6066 43.8437C50.6653 44.1012 50.8902 44.2539 51.1091 44.185L52.2516 43.8249C52.4704 43.7559 52.6003 43.4913 52.5417 43.2338L52.2355 41.8899C52.1769 41.6325 51.9519 41.4797 51.7331 41.5487Z" fill="#4A4A4A"/>
<path d="M54.0265 40.8256L52.8841 41.1856C52.6652 41.2546 52.5353 41.5192 52.594 41.7767L52.9001 43.1206C52.9587 43.378 53.1837 43.5308 53.4026 43.4618L54.545 43.1017C54.7639 43.0327 54.8938 42.7681 54.8351 42.5107L54.529 41.1668C54.4704 40.9093 54.2454 40.7566 54.0265 40.8256Z" fill="#4A4A4A"/>
<path d="M56.3205 40.1029L55.178 40.463C54.9592 40.532 54.8293 40.7966 54.8879 41.054L55.194 42.3979C55.2527 42.6554 55.4776 42.8081 55.6965 42.7392L56.839 42.3791C57.0578 42.3101 57.1877 42.0455 57.1291 41.788L56.8229 40.4441C56.7643 40.1867 56.5393 40.0339 56.3205 40.1029Z" fill="#4A4A4A"/>
<path d="M58.613 39.3802L57.4705 39.7403C57.2516 39.8093 57.1218 40.0739 57.1804 40.3314L57.4865 41.6753C57.5452 41.9327 57.7701 42.0855 57.989 42.0165L59.1315 41.6564C59.3503 41.5874 59.4802 41.3228 59.4215 41.0654L59.1154 39.7215C59.0568 39.464 58.8318 39.3113 58.613 39.3802Z" fill="#4A4A4A"/>
<path d="M60.9064 38.6576L59.764 39.0177C59.5451 39.0867 59.4152 39.3513 59.4739 39.6087L59.78 40.9526C59.8386 41.21 60.0636 41.3628 60.2824 41.2938L61.4249 40.9338C61.6438 40.8648 61.7736 40.6002 61.715 40.3427L61.4089 38.9988C61.3502 38.7414 61.1253 38.5886 60.9064 38.6576Z" fill="#4A4A4A"/>
<path d="M63.1994 37.9344L62.0569 38.2945C61.8381 38.3635 61.7082 38.6281 61.7668 38.8856L62.073 40.2295C62.1316 40.4869 62.3566 40.6397 62.5754 40.5707L63.7179 40.2106C63.9367 40.1416 64.0666 39.877 64.008 39.6196L63.7019 38.2757C63.6432 38.0182 63.4182 37.8655 63.1994 37.9344Z" fill="#4A4A4A"/>
<path d="M65.4924 37.2118L64.3499 37.5719C64.131 37.6409 64.0012 37.9055 64.0598 38.1629L64.3659 39.5068C64.4246 39.7642 64.6495 39.917 64.8684 39.848L66.0108 39.488C66.2297 39.419 66.3596 39.1544 66.3009 38.8969L65.9948 37.553C65.9362 37.2956 65.7112 37.1428 65.4924 37.2118Z" fill="#4A4A4A"/>
<path d="M67.7858 36.4891L66.6433 36.8492C66.4245 36.9182 66.2946 37.1828 66.3533 37.4403L66.6594 38.7841C66.718 39.0416 66.943 39.1944 67.1618 39.1254L68.3043 38.7653C68.5232 38.6963 68.653 38.4317 68.5944 38.1743L68.2883 36.8304C68.2296 36.5729 68.0047 36.4201 67.7858 36.4891Z" fill="#4A4A4A"/>
<path d="M70.0793 35.766L68.9368 36.1261C68.7179 36.1951 68.5881 36.4597 68.6467 36.7171L68.9528 38.061C69.0115 38.3184 69.2364 38.4712 69.4553 38.4022L70.5978 38.0422C70.8166 37.9732 70.9465 37.7086 70.8879 37.4511L70.5817 36.1072C70.5231 35.8498 70.2981 35.697 70.0793 35.766Z" fill="#4A4A4A"/>
<path d="M72.3722 35.0433L71.2298 35.4034C71.0109 35.4724 70.881 35.737 70.9397 35.9945L71.2458 37.3383C71.3044 37.5958 71.5294 37.7486 71.7483 37.6796L72.8907 37.3195C73.1096 37.2505 73.2395 36.9859 73.1808 36.7285L72.8747 35.3846C72.8161 35.1271 72.5911 34.9743 72.3722 35.0433Z" fill="#4A4A4A"/>
<path d="M74.6657 34.3207L73.5232 34.6808C73.3044 34.7497 73.1745 35.0144 73.2331 35.2718L73.5393 36.6157C73.5979 36.8731 73.8229 37.0259 74.0417 36.9569L75.1842 36.5968C75.403 36.5279 75.5329 36.2632 75.4743 36.0058L75.1682 34.6619C75.1095 34.4045 74.8846 34.2517 74.6657 34.3207Z" fill="#4A4A4A"/>
<path fill-rule="evenodd" clip-rule="evenodd" d="M74.5959 34.016L72.737 34.6019C72.6319 34.6351 72.5199 34.6177 72.4257 34.5537C72.3314 34.4897 72.2627 34.3843 72.2345 34.2607L71.9284 32.9168C71.9002 32.7932 71.915 32.6615 71.9694 32.5506C72.0238 32.4398 72.1134 32.3589 72.2185 32.3258L74.0774 31.7398C74.1825 31.7067 74.2945 31.7241 74.3887 31.7881C74.483 31.8521 74.5517 31.9575 74.5799 32.0811L74.886 33.425C74.9142 33.5486 74.8994 33.6803 74.845 33.7912C74.7906 33.902 74.701 33.9829 74.5959 34.016Z" fill="#4A4A4A"/>
<path d="M70.4437 35.3248L71.5861 34.9647C71.805 34.8958 71.9349 34.6311 71.8762 34.3737L71.5701 33.0298C71.5115 32.7724 71.2865 32.6196 71.0677 32.6886L69.9252 33.0487C69.7063 33.1177 69.5764 33.3823 69.6351 33.6397L69.9412 34.9836C69.9999 35.241 70.2248 35.3938 70.4437 35.3248Z" fill="#4A4A4A"/>
<path d="M68.1507 36.0475L69.2932 35.6874C69.512 35.6184 69.6419 35.3538 69.5833 35.0964L69.2771 33.7525C69.2185 33.495 68.9935 33.3423 68.7747 33.4112L67.6322 33.7713C67.4134 33.8403 67.2835 34.1049 67.3421 34.3624L67.6482 35.7063C67.7069 35.9637 67.9318 36.1165 68.1507 36.0475Z" fill="#4A4A4A"/>
<path d="M65.8572 36.7702L66.9997 36.4101C67.2186 36.3411 67.3485 36.0765 67.2898 35.819L66.9837 34.4751C66.925 34.2177 66.7001 34.0649 66.4812 34.1339L65.3388 34.494C65.1199 34.563 64.99 34.8276 65.0487 35.085L65.3548 36.4289C65.4134 36.6864 65.6384 36.8391 65.8572 36.7702Z" fill="#4A4A4A"/>
<path d="M63.5638 37.4928L64.7063 37.1327C64.9251 37.0637 65.055 36.7991 64.9964 36.5417L64.6902 35.1978C64.6316 34.9403 64.4066 34.7876 64.1878 34.8565L63.0453 35.2166C62.8264 35.2856 62.6966 35.5502 62.7552 35.8077L63.0613 37.1516C63.12 37.409 63.3449 37.5618 63.5638 37.4928Z" fill="#4A4A4A"/>
<path d="M61.2713 38.216L62.4138 37.8559C62.6326 37.7869 62.7625 37.5223 62.7039 37.2648L62.3978 35.9209C62.3391 35.6635 62.1142 35.5107 61.8953 35.5797L60.7528 35.9398C60.534 36.0088 60.4041 36.2734 60.4627 36.5308L60.7689 37.8747C60.8275 38.1322 61.0525 38.2849 61.2713 38.216Z" fill="#4A4A4A"/>
<path d="M58.9774 38.9386L60.1198 38.5785C60.3387 38.5095 60.4686 38.2449 60.4099 37.9875L60.1038 36.6436C60.0452 36.3861 59.8202 36.2334 59.6013 36.3023L58.4589 36.6624C58.24 36.7314 58.1101 36.996 58.1688 37.2535L58.4749 38.5974C58.5335 38.8548 58.7585 39.0076 58.9774 38.9386Z" fill="#4A4A4A"/>
<path d="M56.6839 39.6613L57.8264 39.3012C58.0452 39.2322 58.1751 38.9676 58.1165 38.7101L57.8104 37.3662C57.7517 37.1088 57.5267 36.956 57.3079 37.025L56.1654 37.3851C55.9466 37.4541 55.8167 37.7187 55.8753 37.9761L56.1814 39.32C56.2401 39.5775 56.4651 39.7302 56.6839 39.6613Z" fill="#4A4A4A"/>
<path d="M54.3914 40.3844L55.5339 40.0243C55.7528 39.9553 55.8826 39.6907 55.824 39.4333L55.5179 38.0894C55.4592 37.8319 55.2343 37.6792 55.0154 37.7481L53.8729 38.1082C53.6541 38.1772 53.5242 38.4418 53.5828 38.6993L53.889 40.0432C53.9476 40.3006 54.1726 40.4534 54.3914 40.3844Z" fill="#4A4A4A"/>
<path d="M52.098 41.1071L53.2404 40.747C53.4593 40.678 53.5892 40.4134 53.5305 40.1559L53.2244 38.812C53.1658 38.5546 52.9408 38.4018 52.722 38.4708L51.5795 38.8309C51.3606 38.8999 51.2307 39.1645 51.2894 39.4219L51.5955 40.7658C51.6542 41.0233 51.8791 41.176 52.098 41.1071Z" fill="#4A4A4A"/>
<path d="M49.805 41.8297L50.9475 41.4696C51.1663 41.4006 51.2962 41.136 51.2376 40.8786L50.9314 39.5347C50.8728 39.2773 50.6478 39.1245 50.429 39.1935L49.2865 39.5536C49.0677 39.6225 48.9378 39.8872 48.9964 40.1446L49.3025 41.4885C49.3612 41.7459 49.5861 41.8987 49.805 41.8297Z" fill="#4A4A4A"/>
<path d="M47.5115 42.5529L48.654 42.1928C48.8729 42.1238 49.0028 41.8592 48.9441 41.6017L48.638 40.2578C48.5793 40.0004 48.3544 39.8476 48.1355 39.9166L46.9931 40.2767C46.7742 40.3457 46.6443 40.6103 46.703 40.8677L47.0091 42.2116C47.0677 42.4691 47.2927 42.6218 47.5115 42.5529Z" fill="#4A4A4A"/>
<path d="M45.2176 43.2755L46.3601 42.9154C46.5789 42.8464 46.7088 42.5818 46.6502 42.3244L46.344 40.9805C46.2854 40.7231 46.0604 40.5703 45.8416 40.6393L44.6991 40.9994C44.4803 41.0683 44.3504 41.333 44.409 41.5904L44.7151 42.9343C44.7738 43.1917 44.9987 43.3445 45.2176 43.2755Z" fill="#4A4A4A"/>
<path d="M42.9251 43.9982L44.0676 43.6381C44.2864 43.5691 44.4163 43.3045 44.3577 43.047L44.0516 41.7032C43.9929 41.4457 43.768 41.2929 43.5491 41.3619L42.4066 41.722C42.1878 41.791 42.0579 42.0556 42.1165 42.3131L42.4227 43.6569C42.4813 43.9144 42.7063 44.0672 42.9251 43.9982Z" fill="#4A4A4A"/>
<path d="M70.4437 35.3248L71.5861 34.9647C71.805 34.8958 71.9349 34.6311 71.8762 34.3737L71.5701 33.0298C71.5115 32.7724 71.2865 32.6196 71.0677 32.6886L69.9252 33.0487C69.7063 33.1177 69.5764 33.3823 69.6351 33.6397L69.9412 34.9836C69.9999 35.241 70.2248 35.3938 70.4437 35.3248Z" fill="#4A4A4A"/>
<path d="M68.1507 36.0475L69.2932 35.6874C69.512 35.6184 69.6419 35.3538 69.5833 35.0964L69.2771 33.7525C69.2185 33.495 68.9935 33.3423 68.7747 33.4112L67.6322 33.7713C67.4134 33.8403 67.2835 34.1049 67.3421 34.3624L67.6482 35.7063C67.7069 35.9637 67.9318 36.1165 68.1507 36.0475Z" fill="#4A4A4A"/>
<path d="M65.8572 36.7702L66.9997 36.4101C67.2186 36.3411 67.3485 36.0765 67.2898 35.819L66.9837 34.4751C66.925 34.2177 66.7001 34.0649 66.4812 34.1339L65.3388 34.494C65.1199 34.563 64.99 34.8276 65.0487 35.085L65.3548 36.4289C65.4134 36.6864 65.6384 36.8391 65.8572 36.7702Z" fill="#4A4A4A"/>
<path d="M63.5638 37.4928L64.7063 37.1327C64.9251 37.0637 65.055 36.7991 64.9964 36.5417L64.6902 35.1978C64.6316 34.9403 64.4066 34.7876 64.1878 34.8565L63.0453 35.2166C62.8264 35.2856 62.6966 35.5502 62.7552 35.8077L63.0613 37.1516C63.12 37.409 63.3449 37.5618 63.5638 37.4928Z" fill="#4A4A4A"/>
<path d="M61.2713 38.216L62.4138 37.8559C62.6326 37.7869 62.7625 37.5223 62.7039 37.2648L62.3978 35.9209C62.3391 35.6635 62.1142 35.5107 61.8953 35.5797L60.7528 35.9398C60.534 36.0088 60.4041 36.2734 60.4627 36.5308L60.7689 37.8747C60.8275 38.1322 61.0525 38.2849 61.2713 38.216Z" fill="#4A4A4A"/>
<path d="M58.9774 38.9386L60.1198 38.5785C60.3387 38.5095 60.4686 38.2449 60.4099 37.9875L60.1038 36.6436C60.0452 36.3861 59.8202 36.2334 59.6013 36.3023L58.4589 36.6624C58.24 36.7314 58.1101 36.996 58.1688 37.2535L58.4749 38.5974C58.5335 38.8548 58.7585 39.0076 58.9774 38.9386Z" fill="#4A4A4A"/>
<path d="M56.6839 39.6613L57.8264 39.3012C58.0452 39.2322 58.1751 38.9676 58.1165 38.7101L57.8104 37.3662C57.7517 37.1088 57.5267 36.956 57.3079 37.025L56.1654 37.3851C55.9466 37.4541 55.8167 37.7187 55.8753 37.9761L56.1814 39.32C56.2401 39.5775 56.4651 39.7302 56.6839 39.6613Z" fill="#4A4A4A"/>
<path d="M54.3914 40.3844L55.5339 40.0243C55.7528 39.9553 55.8826 39.6907 55.824 39.4333L55.5179 38.0894C55.4592 37.8319 55.2343 37.6792 55.0154 37.7481L53.8729 38.1082C53.6541 38.1772 53.5242 38.4418 53.5828 38.6993L53.889 40.0432C53.9476 40.3006 54.1726 40.4534 54.3914 40.3844Z" fill="#4A4A4A"/>
<path d="M52.098 41.1071L53.2404 40.747C53.4593 40.678 53.5892 40.4134 53.5305 40.1559L53.2244 38.812C53.1658 38.5546 52.9408 38.4018 52.722 38.4708L51.5795 38.8309C51.3606 38.8999 51.2307 39.1645 51.2894 39.4219L51.5955 40.7658C51.6542 41.0233 51.8791 41.176 52.098 41.1071Z" fill="#4A4A4A"/>
<path d="M49.805 41.8297L50.9475 41.4696C51.1663 41.4006 51.2962 41.136 51.2376 40.8786L50.9314 39.5347C50.8728 39.2773 50.6478 39.1245 50.429 39.1935L49.2865 39.5536C49.0677 39.6225 48.9378 39.8872 48.9964 40.1446L49.3025 41.4885C49.3612 41.7459 49.5861 41.8987 49.805 41.8297Z" fill="#4A4A4A"/>
<path d="M47.5115 42.5529L48.654 42.1928C48.8729 42.1238 49.0028 41.8592 48.9441 41.6017L48.638 40.2578C48.5793 40.0004 48.3544 39.8476 48.1355 39.9166L46.9931 40.2767C46.7742 40.3457 46.6443 40.6103 46.703 40.8677L47.0091 42.2116C47.0677 42.4691 47.2927 42.6218 47.5115 42.5529Z" fill="#4A4A4A"/>
<path d="M45.2176 43.2755L46.3601 42.9154C46.5789 42.8464 46.7088 42.5818 46.6502 42.3244L46.344 40.9805C46.2854 40.7231 46.0604 40.5703 45.8416 40.6393L44.6991 40.9994C44.4803 41.0683 44.3504 41.333 44.409 41.5904L44.7151 42.9343C44.7738 43.1917 44.9987 43.3445 45.2176 43.2755Z" fill="#4A4A4A"/>
<path d="M42.9251 43.9982L44.0676 43.6381C44.2864 43.5691 44.4163 43.3045 44.3577 43.047L44.0516 41.7032C43.9929 41.4457 43.768 41.2929 43.5491 41.3619L42.4066 41.722C42.1878 41.791 42.0579 42.0556 42.1165 42.3131L42.4227 43.6569C42.4813 43.9144 42.7063 44.0672 42.9251 43.9982Z" fill="#4A4A4A"/>
<path fill-rule="evenodd" clip-rule="evenodd" d="M43.6082 47.0001L46.2553 46.1658C46.3604 46.1326 46.4724 46.15 46.5666 46.214C46.6609 46.278 46.7296 46.3834 46.7578 46.507L47.0639 47.8509C47.0921 47.9745 47.0773 48.1062 47.0229 48.2171C46.9685 48.3279 46.8789 48.4088 46.7738 48.4419L44.1267 49.2763C44.0216 49.3094 43.9096 49.2921 43.8154 49.2281C43.7211 49.1641 43.6524 49.0587 43.6242 48.935L43.3182 47.5916C43.29 47.468 43.3048 47.3363 43.3592 47.2254C43.4136 47.1146 43.5032 47.0337 43.6083 47.0006L43.6082 47.0001Z" fill="#4A4A4A"/>
<path d="M48.6203 45.4203L47.4778 45.7804C47.259 45.8494 47.1291 46.114 47.1877 46.3714L47.4938 47.7153C47.5525 47.9727 47.7775 48.1255 47.9963 48.0565L49.1388 47.6964C49.3576 47.6275 49.4875 47.3628 49.4289 47.1054L49.1227 45.7615C49.0641 45.5041 48.8391 45.3513 48.6203 45.4203Z" fill="#4A4A4A"/>
<path d="M50.9142 44.6976L49.7718 45.0577C49.5529 45.1267 49.423 45.3913 49.4817 45.6488L49.7878 46.9926C49.8464 47.2501 50.0714 47.4029 50.2903 47.3339L51.4327 46.9738C51.6516 46.9048 51.7815 46.6402 51.7228 46.3827L51.4167 45.0389C51.3581 44.7814 51.1331 44.6286 50.9142 44.6976Z" fill="#4A4A4A"/>
<path d="M53.2072 43.9745L52.0647 44.3346C51.8459 44.4036 51.716 44.6682 51.7746 44.9256L52.0808 46.2695C52.1394 46.5269 52.3644 46.6797 52.5832 46.6107L53.7257 46.2506C53.9445 46.1817 54.0744 45.917 54.0158 45.6596L53.7097 44.3157C53.651 44.0583 53.4261 43.9055 53.2072 43.9745Z" fill="#4A4A4A"/>
<path d="M55.5002 43.2518L54.3577 43.6119C54.1388 43.6809 54.009 43.9455 54.0676 44.203L54.3737 45.5468C54.4324 45.8043 54.6573 45.9571 54.8762 45.8881L56.0187 45.528C56.2375 45.459 56.3674 45.1944 56.3088 44.9369L56.0026 43.5931C55.944 43.3356 55.719 43.1828 55.5002 43.2518Z" fill="#4A4A4A"/>
<path d="M57.7931 42.5292L56.6507 42.8893C56.4318 42.9582 56.3019 43.2229 56.3606 43.4803L56.6667 44.8242C56.7253 45.0816 56.9503 45.2344 57.1692 45.1654L58.3116 44.8053C58.5305 44.7364 58.6604 44.4717 58.6017 44.2143L58.2956 42.8704C58.237 42.613 58.012 42.4602 57.7931 42.5292Z" fill="#4A4A4A"/>
<path d="M60.0866 41.806L58.9441 42.1661C58.7253 42.2351 58.5954 42.4997 58.654 42.7572L58.9602 44.101C59.0188 44.3585 59.2438 44.5113 59.4626 44.4423L60.6051 44.0822C60.8239 44.0132 60.9538 43.7486 60.8952 43.4911L60.5891 42.1473C60.5304 41.8898 60.3055 41.737 60.0866 41.806Z" fill="#4A4A4A"/>
<path d="M62.3801 41.0834L61.2376 41.4435C61.0187 41.5124 60.8888 41.7771 60.9475 42.0345L61.2536 43.3784C61.3123 43.6358 61.5372 43.7886 61.7561 43.7196L62.8985 43.3595C63.1174 43.2906 63.2473 43.0259 63.1886 42.7685L62.8825 41.4246C62.8239 41.1672 62.5989 41.0144 62.3801 41.0834Z" fill="#4A4A4A"/>
<path d="M64.673 40.3607L63.5306 40.7208C63.3117 40.7898 63.1818 41.0544 63.2405 41.3118L63.5466 42.6557C63.6052 42.9132 63.8302 43.066 64.049 42.997L65.1915 42.6369C65.4104 42.5679 65.5403 42.3033 65.4816 42.0458L65.1755 40.7019C65.1168 40.4445 64.8919 40.2917 64.673 40.3607Z" fill="#4A4A4A"/>
<path d="M66.966 39.6381L65.8235 39.9981C65.6047 40.0671 65.4748 40.3317 65.5334 40.5892L65.8396 41.9331C65.8982 42.1905 66.1232 42.3433 66.342 42.2743L67.4845 41.9142C67.7033 41.8452 67.8332 41.5806 67.7746 41.3232L67.4685 39.9793C67.4098 39.7218 67.1849 39.5691 66.966 39.6381Z" fill="#4A4A4A"/>
<path d="M69.2594 38.9149L68.117 39.275C67.8981 39.344 67.7682 39.6086 67.8269 39.866L68.133 41.2099C68.1917 41.4674 68.4166 41.6202 68.6355 41.5512L69.7779 41.1911C69.9968 41.1221 70.1267 40.8575 70.068 40.6L69.7619 39.2561C69.7033 38.9987 69.4783 38.8459 69.2594 38.9149Z" fill="#4A4A4A"/>
<path d="M71.5529 38.1923L70.4104 38.5523C70.1916 38.6213 70.0617 38.8859 70.1203 39.1434L70.4265 40.4873C70.4851 40.7447 70.7101 40.8975 70.9289 40.8285L72.0714 40.4684C72.2903 40.3994 72.4201 40.1348 72.3615 39.8774L72.0554 38.5335C71.9967 38.276 71.7718 38.1233 71.5529 38.1923Z" fill="#4A4A4A"/>
<path fill-rule="evenodd" clip-rule="evenodd" d="M72.7756 37.8071L75.2793 37.018C75.3844 36.9848 75.4963 37.0022 75.5906 37.0662C75.6848 37.1302 75.7536 37.2356 75.7817 37.3592L76.0878 38.7031C76.116 38.8267 76.1013 38.9584 76.0469 39.0693C75.9925 39.1801 75.9028 39.261 75.7977 39.2941L73.2937 40.0834C73.1886 40.1165 73.0766 40.0992 72.9824 40.0352C72.8881 39.9712 72.8194 39.8658 72.7912 39.7422L72.4852 38.3987C72.457 38.2751 72.4718 38.1434 72.5262 38.0325C72.5806 37.9217 72.6702 37.8408 72.7753 37.8077L72.7756 37.8071Z" fill="#4A4A4A"/>
<path d="M46.0187 52.2035L44.8763 52.5636C44.6574 52.6326 44.5275 52.8972 44.5862 53.1546L44.8923 54.4985C44.9509 54.7559 45.1759 54.9087 45.3947 54.8397L46.5372 54.4797C46.7561 54.4107 46.886 54.146 46.8273 53.8886L46.5212 52.5447C46.4625 52.2873 46.2376 52.1345 46.0187 52.2035Z" fill="#4A4A4A"/>
<path d="M48.3122 51.4808L47.1697 51.8409C46.9509 51.9099 46.821 52.1745 46.8796 52.432L47.1857 53.7758C47.2444 54.0333 47.4693 54.1861 47.6882 54.1171L48.8307 53.757C49.0495 53.688 49.1794 53.4234 49.1208 53.166L48.8146 51.8221C48.756 51.5646 48.531 51.4118 48.3122 51.4808Z" fill="#4A4A4A"/>
<path d="M50.6052 50.7577L49.4627 51.1178C49.2438 51.1868 49.1139 51.4514 49.1726 51.7088L49.4787 53.0527C49.5374 53.3101 49.7623 53.4629 49.9812 53.3939L51.1236 53.0339C51.3425 52.9649 51.4724 52.7002 51.4137 52.4428L51.1076 51.0989C51.049 50.8415 50.824 50.6887 50.6052 50.7577Z" fill="#4A4A4A"/>
<path d="M52.8986 50.035L51.7561 50.3951C51.5373 50.4641 51.4074 50.7287 51.466 50.9862L51.7722 52.33C51.8308 52.5875 52.0558 52.7403 52.2746 52.6713L53.4171 52.3112C53.636 52.2422 53.7658 51.9776 53.7072 51.7201L53.4011 50.3763C53.3424 50.1188 53.1175 49.966 52.8986 50.035Z" fill="#4A4A4A"/>
<path fill-rule="evenodd" clip-rule="evenodd" d="M54.0491 49.6725L65.0815 46.1952C65.1866 46.1621 65.2986 46.1794 65.3928 46.2434C65.487 46.3074 65.5558 46.4128 65.5839 46.5364L65.8902 47.8808C65.9183 48.0044 65.9036 48.1361 65.8492 48.247C65.7948 48.3578 65.7052 48.4387 65.6001 48.4718L54.5677 51.9491C54.4626 51.9822 54.3506 51.9649 54.2564 51.9009C54.1622 51.8369 54.0934 51.7315 54.0652 51.6079L53.759 50.2635C53.7309 50.1399 53.7456 50.0082 53.8 49.8973C53.8544 49.7865 53.944 49.7056 54.0491 49.6725ZM66.2319 45.8326L67.6612 45.3821C67.7663 45.3489 67.8783 45.3663 67.9726 45.4303C68.0668 45.4943 68.1355 45.5997 68.1637 45.7233L68.4699 47.0677C68.4981 47.1913 68.4834 47.323 68.429 47.4339C68.3746 47.5447 68.2849 47.6256 68.1798 47.6587L66.7505 48.1092C66.6454 48.1424 66.5334 48.125 66.4392 48.061C66.3449 47.997 66.2762 47.8916 66.248 47.768L65.9418 46.4236C65.9136 46.3 65.9284 46.1683 65.9828 46.0574C66.0372 45.9466 66.1268 45.8657 66.2319 45.8326Z" fill="#4A4A4A"/>
<path d="M69.9543 44.659L68.8118 45.0191C68.5929 45.0881 68.4631 45.3527 68.5217 45.6102L68.8278 46.9541C68.8865 47.2115 69.1114 47.3643 69.3303 47.2953L70.4728 46.9352C70.6916 46.8662 70.8215 46.6016 70.7629 46.3442L70.4567 45.0003C70.3981 44.7428 70.1731 44.5901 69.9543 44.659Z" fill="#4A4A4A"/>
<path d="M72.2477 43.9364L71.1053 44.2965C70.8864 44.3655 70.7565 44.6301 70.8152 44.8875L71.1213 46.2314C71.1799 46.4889 71.4049 46.6416 71.6238 46.5727L72.7662 46.2126C72.9851 46.1436 73.115 45.879 73.0563 45.6215L72.7502 44.2776C72.6915 44.0202 72.4666 43.8674 72.2477 43.9364Z" fill="#4A4A4A"/>
<path d="M76.547 42.5814L75.4046 42.9415C75.1857 43.0105 75.0558 43.2751 75.1145 43.5325L75.4206 44.8764C75.4792 45.1339 75.7042 45.2867 75.9231 45.2177L77.0655 44.8576C77.2844 44.7886 77.4143 44.524 77.3556 44.2665L77.0495 42.9227C76.9909 42.6652 76.7659 42.5124 76.547 42.5814Z" fill="#4A4A4A"/>
<path d="M73.0786 44.7134L72.964 44.21C72.9358 44.0864 72.9506 43.9546 73.005 43.8438C73.0594 43.7329 73.149 43.6521 73.2541 43.6189L74.3965 43.2588C74.5016 43.2257 74.6136 43.2431 74.7078 43.3071C74.8021 43.371 74.8708 43.4765 74.899 43.6001L75.0137 44.1035L73.0786 44.7134Z" fill="#4A4A4A"/>
<path d="M75.0913 44.4404L75.206 44.9438C75.2341 45.0675 75.2194 45.1992 75.165 45.31C75.1106 45.4209 75.021 45.5017 74.9159 45.5349L73.7734 45.895C73.6683 45.9281 73.5563 45.9107 73.4621 45.8468C73.3678 45.7828 73.2991 45.6774 73.2709 45.5537L73.1562 45.0503L75.0913 44.4404Z" fill="#4A4A4A"/>
<path d="M73.6762 30.476L42.2874 40.3694C42.0499 40.4442 41.909 40.7313 41.9726 41.0106C42.0363 41.29 42.2803 41.4557 42.5178 41.3809L73.9066 31.4875C74.144 31.4127 74.2849 31.1255 74.2213 30.8462C74.1577 30.5669 73.9136 30.4011 73.6762 30.476Z" fill="#4A4A4A"/>
<path opacity="0.136" d="M44.2063 39.9452L42.9711 40.3345C42.8128 40.3844 42.7189 40.5757 42.7613 40.7618L42.7614 40.7623C42.8038 40.9484 42.9665 41.0589 43.1247 41.009L44.3599 40.6197C44.5182 40.5698 44.6121 40.3785 44.5697 40.1924L44.5696 40.1919C44.5272 40.0058 44.3645 39.8953 44.2063 39.9452Z" fill="#D8D8D8"/>
<path opacity="0.136" d="M46.6804 39.1654L45.4452 39.5547C45.287 39.6046 45.1931 39.7959 45.2355 39.982L45.2356 39.9825C45.278 40.1686 45.4406 40.2791 45.5988 40.2292L46.834 39.8399C46.9923 39.79 47.0862 39.5987 47.0438 39.4126L47.0437 39.4121C47.0013 39.226 46.8386 39.1155 46.6804 39.1654Z" fill="#D8D8D8"/>
<path opacity="0.136" d="M48.5842 38.5653L47.349 38.9546C47.1908 39.0045 47.0969 39.1958 47.1393 39.3819L47.1394 39.3824C47.1818 39.5685 47.3444 39.679 47.5027 39.6291L48.7379 39.2398C48.8961 39.1899 48.99 38.9986 48.9476 38.8125L48.9475 38.812C48.9051 38.6259 48.7424 38.5154 48.5842 38.5653Z" fill="#D8D8D8"/>
<path opacity="0.136" d="M50.4875 37.9657L49.2523 38.355C49.0941 38.4049 49.0002 38.5962 49.0426 38.7823L49.0427 38.7828C49.0851 38.9689 49.2477 39.0794 49.406 39.0295L50.6412 38.6402C50.7994 38.5903 50.8933 38.399 50.8509 38.2129L50.8508 38.2124C50.8084 38.0263 50.6458 37.9158 50.4875 37.9657Z" fill="#D8D8D8"/>
<path opacity="0.136" d="M52.3918 37.3656L51.1566 37.7549C50.9984 37.8048 50.9045 37.9961 50.9469 38.1822L50.947 38.1827C50.9894 38.3688 51.152 38.4793 51.3103 38.4294L52.5455 38.0401C52.7037 37.9902 52.7976 37.7989 52.7552 37.6128L52.7551 37.6123C52.7127 37.4262 52.5501 37.3157 52.3918 37.3656Z" fill="#D8D8D8"/>
<path opacity="0.136" d="M54.7707 36.6156L53.5355 37.0049C53.3773 37.0548 53.2834 37.2461 53.3258 37.4322L53.3259 37.4327C53.3683 37.6188 53.5309 37.7293 53.6892 37.6794L54.9244 37.2901C55.0826 37.2402 55.1765 37.0489 55.1341 36.8628L55.134 36.8623C55.0916 36.6762 54.929 36.5657 54.7707 36.6156Z" fill="#D8D8D8"/>
<path opacity="0.136" d="M56.6741 36.0155L55.4389 36.4048C55.2806 36.4547 55.1867 36.646 55.2291 36.8321L55.2292 36.8326C55.2716 37.0187 55.4343 37.1292 55.5925 37.0793L56.8277 36.69C56.9859 36.6401 57.0798 36.4488 57.0374 36.2627L57.0373 36.2622C56.9949 36.0761 56.8323 35.9656 56.6741 36.0155Z" fill="#D8D8D8"/>
<path opacity="0.136" d="M58.5779 35.4154L57.3427 35.8047C57.1844 35.8546 57.0905 36.0459 57.1329 36.232L57.133 36.2325C57.1754 36.4186 57.3381 36.5291 57.4963 36.4792L58.7315 36.0899C58.8897 36.04 58.9836 35.8487 58.9412 35.6626L58.9411 35.6621C58.8987 35.476 58.7361 35.3655 58.5779 35.4154Z" fill="#D8D8D8"/>
<path opacity="0.136" d="M60.4812 34.8158L59.246 35.2051C59.0877 35.255 58.9938 35.4463 59.0362 35.6324L59.0363 35.6329C59.0787 35.819 59.2414 35.9295 59.3996 35.8796L60.6348 35.4903C60.7931 35.4404 60.887 35.2491 60.8446 35.063L60.8445 35.0625C60.8021 34.8764 60.6394 34.7659 60.4812 34.8158Z" fill="#D8D8D8"/>
<path opacity="0.136" d="M62.8606 34.0658L61.6254 34.4551C61.4671 34.505 61.3732 34.6963 61.4156 34.8824L61.4157 34.8829C61.4581 35.069 61.6208 35.1795 61.779 35.1296L63.0142 34.7403C63.1725 34.6904 63.2664 34.4991 63.224 34.313L63.2239 34.3125C63.1815 34.1264 63.0188 34.0159 62.8606 34.0658Z" fill="#D8D8D8"/>
<path opacity="0.136" d="M64.7639 33.4657L63.5287 33.855C63.3705 33.9049 63.2766 34.0962 63.319 34.2823L63.3191 34.2828C63.3615 34.4689 63.5241 34.5794 63.6823 34.5295L64.9175 34.1402C65.0758 34.0903 65.1697 33.899 65.1273 33.7129L65.1272 33.7124C65.0848 33.5263 64.9221 33.4158 64.7639 33.4657Z" fill="#D8D8D8"/>
<path opacity="0.136" d="M66.6682 32.8656L65.433 33.2549C65.2748 33.3048 65.1809 33.4961 65.2233 33.6822L65.2234 33.6827C65.2658 33.8688 65.4284 33.9793 65.5866 33.9294L66.8218 33.5401C66.9801 33.4902 67.074 33.2989 67.0316 33.1128L67.0315 33.1123C66.9891 32.9262 66.8264 32.8157 66.6682 32.8656Z" fill="#D8D8D8"/>
<path opacity="0.136" d="M69.0466 32.1156L67.8114 32.5049C67.6532 32.5548 67.5593 32.7461 67.6017 32.9322L67.6018 32.9327C67.6442 33.1188 67.8068 33.2293 67.9651 33.1794L69.2003 32.7901C69.3585 32.7402 69.4524 32.5489 69.41 32.3628L69.4099 32.3623C69.3675 32.1762 69.2048 32.0657 69.0466 32.1156Z" fill="#D8D8D8"/>
<path opacity="0.136" d="M70.9499 31.516L69.7147 31.9053C69.5565 31.9552 69.4626 32.1465 69.505 32.3326L69.5051 32.3331C69.5475 32.5192 69.7101 32.6297 69.8684 32.5798L71.1036 32.1905C71.2618 32.1406 71.3557 31.9493 71.3133 31.7632L71.3132 31.7627C71.2708 31.5766 71.1082 31.4661 70.9499 31.516Z" fill="#D8D8D8"/>
<path opacity="0.136" d="M72.8542 30.9159L71.619 31.3052C71.4608 31.3551 71.3669 31.5464 71.4093 31.7325L71.4094 31.733C71.4518 31.9191 71.6144 32.0296 71.7727 31.9797L73.0079 31.5904C73.1661 31.5405 73.26 31.3492 73.2176 31.1631L73.2175 31.1626C73.1751 30.9765 73.0125 30.866 72.8542 30.9159Z" fill="#D8D8D8"/>
<path fill-rule="evenodd" clip-rule="evenodd" d="M57.4357 67.9354C57.3458 67.9354 57.2601 67.9533 57.1735 67.9663C57.1579 67.8939 57.1432 67.821 57.1259 67.7486C57.5631 67.5336 57.9235 67.1472 58.1459 66.655C58.3683 66.1628 58.439 65.5952 58.346 65.0487C58.2529 64.5021 58.0019 64.0103 57.6355 63.6569C57.2692 63.3034 56.81 63.11 56.3362 63.1095C55.8882 63.1114 55.4533 63.2872 55.0988 63.6095C55.0534 63.555 55.0076 63.5009 54.9614 63.4474C55.2294 63.0328 55.3751 62.5267 55.3762 62.0059C55.3759 61.4499 55.2124 60.9112 54.9134 60.4806C54.6144 60.0501 54.1981 59.7543 53.7351 59.6431C53.272 59.5319 52.7905 59.6123 52.372 59.8705C51.9534 60.1288 51.6236 60.5491 51.4381 61.0605C51.3774 61.0402 51.3163 61.0233 51.2556 61.005C51.2666 60.9032 51.2818 60.8023 51.2818 60.6966C51.2818 60.0567 51.0657 59.4429 50.681 58.9904C50.2963 58.5379 49.7746 58.2837 49.2305 58.2837C48.6865 58.2837 48.1647 58.5379 47.7801 58.9904C47.3954 59.4429 47.1792 60.0567 47.1792 60.6966C47.1792 60.8023 47.1944 60.9032 47.2055 61.005C47.1448 61.0233 47.0837 61.0402 47.0229 61.0605C46.8381 60.5482 46.5084 60.1268 46.0897 59.8677C45.6709 59.6087 45.1889 59.528 44.7253 59.6393C44.2618 59.7506 43.8452 60.047 43.5462 60.4783C43.2472 60.9097 43.0842 61.4493 43.0849 62.0059C43.0849 62.5488 43.2424 63.0439 43.4997 63.4474C41.9747 65.2001 41.0254 67.6425 41.0254 70.3483C41.0254 75.679 44.6988 80 49.2305 80C53.0619 80 56.2705 76.9067 57.1735 72.7304C57.2601 72.7434 57.3458 72.7613 57.4357 72.7613C57.9797 72.7613 58.5015 72.507 58.8862 72.0545C59.2708 71.602 59.487 70.9883 59.487 70.3483C59.487 69.7084 59.2708 69.0946 58.8862 68.6421C58.5015 68.1896 57.9797 67.9354 57.4357 67.9354Z" fill="#44D860"/>
<path fill-rule="evenodd" clip-rule="evenodd" d="M32.8203 51.0448H49.2306V41.3931H32.8203V51.0448Z" fill="#3ECC5F"/>
<path fill-rule="evenodd" clip-rule="evenodd" d="M53.3336 47.4253C53.6056 47.4253 53.8664 47.2982 54.0588 47.072C54.2511 46.8457 54.3592 46.5388 54.3592 46.2189C54.3592 45.8989 54.2511 45.592 54.0588 45.3658C53.8664 45.1395 53.6056 45.0124 53.3336 45.0124C53.2888 45.0124 53.2458 45.0216 53.2027 45.0278C53.1945 44.9916 53.1875 44.9554 53.1789 44.9193C53.3972 44.8114 53.5771 44.6181 53.6881 44.3721C53.7991 44.126 53.8343 43.8424 53.7878 43.5693C53.7413 43.2962 53.6159 43.0505 53.4329 42.8737C53.2499 42.6969 53.0206 42.6 52.7838 42.5995C52.5504 42.5995 52.3375 42.6945 52.1651 42.8494C52.1426 42.8219 52.1196 42.7949 52.0962 42.7684C52.225 42.5671 52.3038 42.3191 52.3038 42.0474C52.3037 41.7693 52.222 41.4999 52.0725 41.2845C51.9229 41.0692 51.7147 40.9212 51.4831 40.8656C51.2515 40.8101 51.0107 40.8503 50.8014 40.9796C50.5921 41.1088 50.4272 41.3191 50.3346 41.5749C49.9755 41.4555 49.6042 41.3942 49.231 41.393C46.9655 41.393 45.1284 43.554 45.1284 46.2189C45.1284 48.8837 46.9655 51.0447 49.231 51.0447C49.6142 51.0447 49.983 50.9781 50.3346 50.8628C50.4272 51.1186 50.5921 51.3289 50.8014 51.4581C51.0107 51.5874 51.2515 51.6276 51.4831 51.5721C51.7147 51.5165 51.9229 51.3685 52.0725 51.1532C52.222 50.9379 52.3037 50.6684 52.3038 50.3903C52.3038 50.1186 52.225 49.8706 52.0962 49.6693C52.1196 49.6428 52.1426 49.6158 52.1651 49.5883C52.3375 49.7432 52.5504 49.8383 52.7838 49.8383C53.0208 49.8382 53.2506 49.7416 53.4339 49.5649C53.6172 49.3881 53.7428 49.1422 53.7894 48.8688C53.836 48.5954 53.8006 48.3115 53.6893 48.0653C53.578 47.8191 53.3976 47.6259 53.1789 47.5185C53.1875 47.4828 53.1945 47.4461 53.2027 47.4099C53.2458 47.4162 53.2888 47.4253 53.3336 47.4253Z" fill="#44D860"/>
<path fill-rule="evenodd" clip-rule="evenodd" d="M57.4358 11.8347C57.3702 11.8347 57.3004 11.8251 57.2348 11.8106C57.1688 11.7955 57.1042 11.7729 57.0419 11.7431C56.9804 11.7141 56.923 11.6755 56.8651 11.6321C56.8118 11.5886 56.7589 11.5355 56.7092 11.4825C56.6645 11.4246 56.6194 11.3666 56.5825 11.2991C56.5455 11.2315 56.5127 11.164 56.4877 11.0916C56.4373 10.9442 56.411 10.7871 56.4102 10.6283C56.4102 10.5511 56.4184 10.469 56.4307 10.3918C56.443 10.3146 56.4635 10.2422 56.4877 10.165C56.5127 10.0926 56.5455 10.0251 56.5825 9.95749C56.6194 9.89476 56.6645 9.83202 56.7092 9.77411C56.7589 9.72102 56.8118 9.66794 56.8651 9.62451C56.923 9.58107 56.9804 9.54247 57.0419 9.51351C57.1031 9.48456 57.1691 9.46043 57.2348 9.44595C57.3661 9.41217 57.5014 9.41217 57.6368 9.44595C57.7021 9.46043 57.7681 9.48456 57.8296 9.51351C57.8908 9.54247 57.9486 9.58107 58.0061 9.62451C58.0594 9.66794 58.1123 9.72102 58.162 9.77411C58.2071 9.83202 58.2522 9.89476 58.2891 9.95749C58.3261 10.0251 58.3589 10.0926 58.3835 10.165C58.4081 10.2422 58.4286 10.3146 58.4409 10.3918C58.4528 10.469 58.4614 10.5511 58.4614 10.6283C58.4614 10.9468 58.3503 11.2605 58.162 11.4825C58.1123 11.5355 58.0594 11.5886 58.0061 11.6321C57.9486 11.6755 57.8908 11.7141 57.8296 11.7431C57.7046 11.8031 57.5709 11.8342 57.4358 11.8347ZM65.6409 11.2315C65.3702 11.2315 65.1076 11.1012 64.9144 10.8792C64.8688 10.8214 64.8265 10.7601 64.7876 10.6958C64.7507 10.6283 64.7179 10.5607 64.6928 10.4883C64.6425 10.341 64.6162 10.1838 64.6153 10.0251C64.6153 9.70655 64.7261 9.39769 64.9144 9.17088C64.964 9.11779 65.0169 9.06471 65.0703 9.02127C65.1281 8.97784 65.1855 8.93924 65.2471 8.91028C65.3082 8.88133 65.3743 8.8572 65.4399 8.84272C65.5712 8.80894 65.7107 8.80894 65.842 8.84272C65.9072 8.8572 65.9732 8.88133 66.0348 8.91028C66.0959 8.93924 66.1538 8.97784 66.2112 9.02127C66.2645 9.06471 66.3175 9.11779 66.3671 9.17088C66.5554 9.39769 66.6666 9.70655 66.6666 10.0251C66.6666 10.1023 66.658 10.1843 66.6461 10.2615C66.6338 10.3387 66.6132 10.4159 66.5886 10.4883C66.5599 10.5607 66.5312 10.6283 66.4943 10.6958C66.4573 10.7586 66.4122 10.8213 66.3671 10.8792C66.3175 10.9323 66.2645 10.9854 66.2112 11.0288C66.1538 11.0723 66.0959 11.1109 66.0348 11.1398C65.9097 11.1998 65.776 11.231 65.6409 11.2315Z" fill="black"/>
</svg>
